G04 #@! TF.FileFunction,Copper,L1,Top,Signal*
%FSLAX46Y46*%
G04 Gerber Fmt 4.6, Leading zero omitted, Abs format (unit mm)*
G04 Created by KiCad (PCBNEW 4.0.7) date 08/19/18 18:09:51*
%MOMM*%
%LPD*%
G01*
G04 APERTURE LIST*
%ADD10C,0.100000*%
%ADD11R,0.800000X0.750000*%
%ADD12R,1.700000X1.700000*%
%ADD13O,1.700000X1.700000*%
%ADD14R,0.900000X0.500000*%
%ADD15R,0.500000X0.900000*%
%ADD16R,0.300000X0.850000*%
%ADD17R,0.850000X0.300000*%
%ADD18R,1.300000X1.300000*%
%ADD19C,1.700000*%
%ADD20C,0.800000*%
%ADD21C,0.250000*%
G04 APERTURE END LIST*
D10*
D11*
X156452000Y-100457000D03*
X154952000Y-100457000D03*
X156452000Y-102108000D03*
X154952000Y-102108000D03*
X156452000Y-105410000D03*
X154952000Y-105410000D03*
D12*
X149860000Y-101600000D03*
D13*
X149860000Y-104140000D03*
X149860000Y-106680000D03*
X149860000Y-109220000D03*
X149860000Y-111760000D03*
D14*
X153162000Y-103517000D03*
X153162000Y-105017000D03*
X153162000Y-100596000D03*
X153162000Y-102096000D03*
D15*
X154952000Y-103759000D03*
X156452000Y-103759000D03*
D16*
X156952000Y-110318000D03*
X156452000Y-110318000D03*
X155952000Y-110318000D03*
X155452000Y-110318000D03*
X154952000Y-110318000D03*
X154452000Y-110318000D03*
D17*
X153752000Y-111018000D03*
X153752000Y-111518000D03*
X153752000Y-112018000D03*
X153752000Y-112518000D03*
X153752000Y-113018000D03*
X153752000Y-113518000D03*
D16*
X154452000Y-114218000D03*
X154952000Y-114218000D03*
X155452000Y-114218000D03*
X155952000Y-114218000D03*
X156452000Y-114218000D03*
X156952000Y-114218000D03*
D17*
X157652000Y-113518000D03*
X157652000Y-113018000D03*
X157652000Y-112518000D03*
X157652000Y-112018000D03*
X157652000Y-111518000D03*
X157652000Y-111018000D03*
D18*
X155052000Y-112918000D03*
X156352000Y-112918000D03*
X155052000Y-111618000D03*
X156352000Y-111618000D03*
D19*
X168275000Y-114300000D03*
X168275000Y-111760000D03*
X168275000Y-109220000D03*
X168275000Y-106680000D03*
X168275000Y-104140000D03*
X168275000Y-101600000D03*
X168275000Y-99060000D03*
X160655000Y-111760000D03*
X160655000Y-114300000D03*
X160655000Y-109220000D03*
X160655000Y-106680000D03*
X160655000Y-104140000D03*
X160655000Y-101600000D03*
D12*
X160655000Y-99060000D03*
D20*
X155052000Y-112918000D03*
X156464000Y-97917000D03*
X152400000Y-115316000D03*
X151384000Y-98806000D03*
X154686000Y-108966000D03*
X155321000Y-106807000D03*
X152146000Y-111252000D03*
X152400000Y-108966000D03*
X152400000Y-110236000D03*
X155194000Y-115697000D03*
X153670000Y-115570000D03*
X161798000Y-110490000D03*
X151765000Y-112522000D03*
X156464000Y-106807000D03*
X155702000Y-108966000D03*
X169545000Y-107950000D03*
X157226000Y-107823000D03*
X153543000Y-108966000D03*
X163449000Y-100330000D03*
X162814000Y-103251000D03*
D21*
X155052000Y-111618000D02*
X156352000Y-111618000D01*
X156352000Y-111618000D02*
X156352000Y-112918000D01*
X156352000Y-112918000D02*
X155052000Y-112918000D01*
X157652000Y-113018000D02*
X156452000Y-113018000D01*
X156452000Y-113018000D02*
X156352000Y-112918000D01*
X156464000Y-97917000D02*
X156464000Y-100445000D01*
X156452000Y-105410000D02*
X156452000Y-103759000D01*
X156452000Y-103759000D02*
X156452000Y-102108000D01*
X156452000Y-102108000D02*
X156452000Y-100457000D01*
X156452000Y-100457000D02*
X156464000Y-100445000D01*
X151892000Y-113792000D02*
X151892000Y-114808000D01*
X151892000Y-114808000D02*
X152400000Y-115316000D01*
X153162000Y-100596000D02*
X153162000Y-100584000D01*
X153162000Y-100584000D02*
X151384000Y-98806000D01*
X153162000Y-103517000D02*
X153543000Y-103517000D01*
X153543000Y-103517000D02*
X154952000Y-102108000D01*
X154952000Y-100457000D02*
X154952000Y-102108000D01*
X153162000Y-100596000D02*
X154813000Y-100596000D01*
X154813000Y-100596000D02*
X154952000Y-100457000D01*
X149860000Y-111760000D02*
X149860000Y-113030000D01*
X152666000Y-113018000D02*
X153752000Y-113018000D01*
X151892000Y-113792000D02*
X152666000Y-113018000D01*
X150622000Y-113792000D02*
X151892000Y-113792000D01*
X149860000Y-113030000D02*
X150622000Y-113792000D01*
X154940000Y-106426000D02*
X154940000Y-106426000D01*
X154952000Y-109232000D02*
X154686000Y-108966000D01*
X155321000Y-106807000D02*
X154940000Y-106426000D01*
X154952000Y-110318000D02*
X154952000Y-109232000D01*
X154952000Y-106414000D02*
X154952000Y-105410000D01*
X154940000Y-106426000D02*
X154952000Y-106414000D01*
X153752000Y-112018000D02*
X152658000Y-112018000D01*
X152146000Y-111760000D02*
X152146000Y-111252000D01*
X152400000Y-112014000D02*
X152146000Y-111760000D01*
X152654000Y-112014000D02*
X152400000Y-112014000D01*
X152658000Y-112018000D02*
X152654000Y-112014000D01*
X156452000Y-114218000D02*
X156452000Y-115050000D01*
X166243000Y-111760000D02*
X168275000Y-111760000D01*
X161925000Y-116078000D02*
X166243000Y-111760000D01*
X157480000Y-116078000D02*
X161925000Y-116078000D01*
X156452000Y-115050000D02*
X157480000Y-116078000D01*
X156952000Y-114218000D02*
X158160000Y-114218000D01*
X164846000Y-109220000D02*
X168275000Y-109220000D01*
X164846000Y-112014000D02*
X164846000Y-109220000D01*
X161290000Y-115570000D02*
X164846000Y-112014000D01*
X159512000Y-115570000D02*
X161290000Y-115570000D01*
X158160000Y-114218000D02*
X159512000Y-115570000D01*
X157652000Y-113518000D02*
X159278000Y-113518000D01*
X165735000Y-106680000D02*
X168275000Y-106680000D01*
X163576000Y-108839000D02*
X165735000Y-106680000D01*
X163576000Y-112141000D02*
X163576000Y-108839000D01*
X162687000Y-113030000D02*
X163576000Y-112141000D01*
X159766000Y-113030000D02*
X162687000Y-113030000D01*
X159278000Y-113518000D02*
X159766000Y-113030000D01*
X157652000Y-111518000D02*
X158484000Y-111518000D01*
X168275000Y-104140000D02*
X168275000Y-104140000D01*
X159639000Y-102870000D02*
X161417000Y-102870000D01*
X161417000Y-102870000D02*
X162052000Y-102870000D01*
X162052000Y-102870000D02*
X162052000Y-104902000D01*
X162052000Y-104902000D02*
X166370000Y-104902000D01*
X166370000Y-104902000D02*
X168275000Y-104140000D01*
X158496000Y-103759000D02*
X159639000Y-102870000D01*
X158496000Y-111252000D02*
X158496000Y-103759000D01*
X158484000Y-111518000D02*
X158496000Y-111252000D01*
X153752000Y-111018000D02*
X153752000Y-110318000D01*
X153752000Y-110318000D02*
X152400000Y-108966000D01*
X153752000Y-111018000D02*
X153752000Y-111018000D01*
X152400000Y-110236000D02*
X152908000Y-110744000D01*
X152920000Y-111518000D02*
X153752000Y-111518000D01*
X152908000Y-111506000D02*
X152920000Y-111518000D01*
X152908000Y-110744000D02*
X152908000Y-111506000D01*
X154452000Y-114218000D02*
X154452000Y-114955000D01*
X154452000Y-114955000D02*
X155194000Y-115697000D01*
X153752000Y-115488000D02*
X153670000Y-115570000D01*
X153752000Y-113518000D02*
X153752000Y-115488000D01*
X157652000Y-112518000D02*
X159381000Y-112518000D01*
X159454002Y-107880998D02*
X160655000Y-106680000D01*
X159454002Y-112444998D02*
X159454002Y-107880998D01*
X159381000Y-112518000D02*
X159454002Y-112444998D01*
X157652000Y-112018000D02*
X158750000Y-112018000D01*
X159004000Y-105664000D02*
X160655000Y-104140000D01*
X159004000Y-111760000D02*
X159004000Y-105664000D01*
X158750000Y-112018000D02*
X159004000Y-111760000D01*
X158033000Y-111018000D02*
X158033000Y-102317000D01*
X158623000Y-101600000D02*
X160655000Y-101600000D01*
X158033000Y-102317000D02*
X158623000Y-101600000D01*
X162560000Y-109728000D02*
X162560000Y-108966000D01*
X152785000Y-112518000D02*
X152019000Y-112522000D01*
X152019000Y-112522000D02*
X151765000Y-112522000D01*
X161798000Y-110490000D02*
X162560000Y-109728000D01*
X153752000Y-112518000D02*
X152785000Y-112518000D01*
X169037000Y-100330000D02*
X167259000Y-100330000D01*
X167259000Y-100330000D02*
X166370000Y-99060000D01*
X166370000Y-99060000D02*
X161925000Y-99060000D01*
X161925000Y-99060000D02*
X160655000Y-99060000D01*
X169545000Y-100838000D02*
X169037000Y-100330000D01*
X169545000Y-104902000D02*
X169545000Y-100838000D01*
X169037000Y-105410000D02*
X169545000Y-104902000D01*
X166116000Y-105410000D02*
X169037000Y-105410000D01*
X162560000Y-108966000D02*
X166116000Y-105410000D01*
X154952000Y-103759000D02*
X154559000Y-103759000D01*
X151384000Y-104140000D02*
X149860000Y-104140000D01*
X151511000Y-104267000D02*
X151384000Y-104140000D01*
X154051000Y-104267000D02*
X151511000Y-104267000D01*
X154559000Y-103759000D02*
X154051000Y-104267000D01*
X155952000Y-110318000D02*
X155952000Y-109216000D01*
X155702000Y-104775000D02*
X154952000Y-104025000D01*
X155702000Y-106045000D02*
X155702000Y-104775000D01*
X156464000Y-106807000D02*
X155702000Y-106045000D01*
X155952000Y-109216000D02*
X155702000Y-108966000D01*
X154952000Y-104025000D02*
X154952000Y-103759000D01*
X148336000Y-110490000D02*
X148336000Y-112395000D01*
X169672000Y-107950000D02*
X169545000Y-107950000D01*
X169799000Y-108077000D02*
X169672000Y-107950000D01*
X169799000Y-113030000D02*
X169799000Y-108077000D01*
X166497000Y-113030000D02*
X169799000Y-113030000D01*
X162941000Y-116586000D02*
X166497000Y-113030000D01*
X152527000Y-116586000D02*
X162941000Y-116586000D01*
X148336000Y-112395000D02*
X152527000Y-116586000D01*
X149860000Y-106680000D02*
X149860000Y-106553000D01*
X149860000Y-106553000D02*
X148336000Y-105029000D01*
X152539000Y-102096000D02*
X153162000Y-102096000D01*
X151765000Y-102870000D02*
X152539000Y-102096000D01*
X148971000Y-102870000D02*
X151765000Y-102870000D01*
X148336000Y-103505000D02*
X148971000Y-102870000D01*
X148336000Y-105029000D02*
X148336000Y-103505000D01*
X149860000Y-106680000D02*
X149860000Y-106807000D01*
X149860000Y-106807000D02*
X148336000Y-108331000D01*
X148336000Y-108331000D02*
X148336000Y-110490000D01*
X148336000Y-110490000D02*
X151130000Y-110490000D01*
X151130000Y-110490000D02*
X151638000Y-109982000D01*
X151638000Y-109982000D02*
X151638000Y-108585000D01*
X151638000Y-108585000D02*
X152146000Y-108077000D01*
X152146000Y-108077000D02*
X156337000Y-108077000D01*
X156337000Y-108077000D02*
X156452000Y-108192000D01*
X156452000Y-108192000D02*
X156452000Y-110318000D01*
X156952000Y-107589000D02*
X156992000Y-107589000D01*
X156992000Y-107589000D02*
X157226000Y-107823000D01*
X153162000Y-105017000D02*
X151650000Y-105017000D01*
X151384000Y-105283000D02*
X151384000Y-107569000D01*
X151650000Y-105017000D02*
X151384000Y-105283000D01*
X156952000Y-110318000D02*
X156952000Y-107589000D01*
X151384000Y-107950000D02*
X149860000Y-109220000D01*
X156932000Y-107569000D02*
X151384000Y-107569000D01*
X151384000Y-107569000D02*
X151384000Y-107950000D01*
X156952000Y-107589000D02*
X156932000Y-107569000D01*
X154452000Y-110318000D02*
X154452000Y-109875000D01*
X154452000Y-109875000D02*
X153543000Y-108966000D01*
X163449000Y-102616000D02*
X163449000Y-100330000D01*
X162814000Y-103251000D02*
X163449000Y-102616000D01*
M02*
