M48
;DRILL file {KiCad 4.0.7} date 08/19/18 18:09:53
;FORMAT={-:-/ absolute / metric / decimal}
FMAT,2
METRIC,TZ
T1C0.400
T2C1.000
%
G90
G05
M71
T1
X151.384Y-98.806
X151.765Y-112.522
X152.146Y-111.252
X152.4Y-108.966
X152.4Y-110.236
X152.4Y-115.316
X153.543Y-108.966
X153.67Y-115.57
X154.686Y-108.966
X155.052Y-112.918
X155.194Y-115.697
X155.321Y-106.807
X155.702Y-108.966
X156.464Y-97.917
X156.464Y-106.807
X157.226Y-107.823
X161.798Y-110.49
X162.814Y-103.251
X163.449Y-100.33
X169.545Y-107.95
T2
X149.86Y-101.6
X149.86Y-104.14
X149.86Y-106.68
X149.86Y-109.22
X149.86Y-111.76
X160.655Y-99.06
X160.655Y-101.6
X160.655Y-104.14
X160.655Y-106.68
X160.655Y-109.22
X160.655Y-111.76
X160.655Y-114.3
X168.275Y-99.06
X168.275Y-101.6
X168.275Y-104.14
X168.275Y-106.68
X168.275Y-109.22
X168.275Y-111.76
X168.275Y-114.3
T0
M30
