G04 #@! TF.FileFunction,Legend,Top*
%FSLAX46Y46*%
G04 Gerber Fmt 4.6, Leading zero omitted, Abs format (unit mm)*
G04 Created by KiCad (PCBNEW 4.0.7) date 08/19/18 18:09:51*
%MOMM*%
%LPD*%
G01*
G04 APERTURE LIST*
%ADD10C,0.100000*%
%ADD11C,0.150000*%
%ADD12C,0.120000*%
G04 APERTURE END LIST*
D10*
D11*
X150926667Y-114103095D02*
X150660000Y-113303095D01*
X150393333Y-114103095D01*
X149669524Y-113379286D02*
X149707619Y-113341190D01*
X149821905Y-113303095D01*
X149898095Y-113303095D01*
X150012381Y-113341190D01*
X150088572Y-113417381D01*
X150126667Y-113493571D01*
X150164762Y-113645952D01*
X150164762Y-113760238D01*
X150126667Y-113912619D01*
X150088572Y-113988810D01*
X150012381Y-114065000D01*
X149898095Y-114103095D01*
X149821905Y-114103095D01*
X149707619Y-114065000D01*
X149669524Y-114026905D01*
X148869524Y-113379286D02*
X148907619Y-113341190D01*
X149021905Y-113303095D01*
X149098095Y-113303095D01*
X149212381Y-113341190D01*
X149288572Y-113417381D01*
X149326667Y-113493571D01*
X149364762Y-113645952D01*
X149364762Y-113760238D01*
X149326667Y-113912619D01*
X149288572Y-113988810D01*
X149212381Y-114065000D01*
X149098095Y-114103095D01*
X149021905Y-114103095D01*
X148907619Y-114065000D01*
X148869524Y-114026905D01*
X151187190Y-108248572D02*
X151149095Y-108362858D01*
X151149095Y-108553334D01*
X151187190Y-108629524D01*
X151225286Y-108667620D01*
X151301476Y-108705715D01*
X151377667Y-108705715D01*
X151453857Y-108667620D01*
X151491952Y-108629524D01*
X151530048Y-108553334D01*
X151568143Y-108400953D01*
X151606238Y-108324762D01*
X151644333Y-108286667D01*
X151720524Y-108248572D01*
X151796714Y-108248572D01*
X151872905Y-108286667D01*
X151911000Y-108324762D01*
X151949095Y-108400953D01*
X151949095Y-108591429D01*
X151911000Y-108705715D01*
X151149095Y-109048572D02*
X151949095Y-109048572D01*
X151949095Y-109239048D01*
X151911000Y-109353334D01*
X151834810Y-109429525D01*
X151758619Y-109467620D01*
X151606238Y-109505715D01*
X151491952Y-109505715D01*
X151339571Y-109467620D01*
X151263381Y-109429525D01*
X151187190Y-109353334D01*
X151149095Y-109239048D01*
X151149095Y-109048572D01*
X151377667Y-109810477D02*
X151377667Y-110191429D01*
X151149095Y-109734286D02*
X151949095Y-110000953D01*
X151149095Y-110267620D01*
X149250477Y-99295000D02*
X149174286Y-99256905D01*
X149060001Y-99256905D01*
X148945715Y-99295000D01*
X148869524Y-99371190D01*
X148831429Y-99447381D01*
X148793334Y-99599762D01*
X148793334Y-99714048D01*
X148831429Y-99866429D01*
X148869524Y-99942619D01*
X148945715Y-100018810D01*
X149060001Y-100056905D01*
X149136191Y-100056905D01*
X149250477Y-100018810D01*
X149288572Y-99980714D01*
X149288572Y-99714048D01*
X149136191Y-99714048D01*
X149631429Y-100056905D02*
X149631429Y-99256905D01*
X150088572Y-100056905D01*
X150088572Y-99256905D01*
X150469524Y-100056905D02*
X150469524Y-99256905D01*
X150660000Y-99256905D01*
X150774286Y-99295000D01*
X150850477Y-99371190D01*
X150888572Y-99447381D01*
X150926667Y-99599762D01*
X150926667Y-99714048D01*
X150888572Y-99866429D01*
X150850477Y-99942619D01*
X150774286Y-100018810D01*
X150660000Y-100056905D01*
X150469524Y-100056905D01*
X151187190Y-103511429D02*
X151149095Y-103625715D01*
X151149095Y-103816191D01*
X151187190Y-103892381D01*
X151225286Y-103930477D01*
X151301476Y-103968572D01*
X151377667Y-103968572D01*
X151453857Y-103930477D01*
X151491952Y-103892381D01*
X151530048Y-103816191D01*
X151568143Y-103663810D01*
X151606238Y-103587619D01*
X151644333Y-103549524D01*
X151720524Y-103511429D01*
X151796714Y-103511429D01*
X151872905Y-103549524D01*
X151911000Y-103587619D01*
X151949095Y-103663810D01*
X151949095Y-103854286D01*
X151911000Y-103968572D01*
X151149095Y-104311429D02*
X151949095Y-104311429D01*
X151949095Y-104501905D01*
X151911000Y-104616191D01*
X151834810Y-104692382D01*
X151758619Y-104730477D01*
X151606238Y-104768572D01*
X151491952Y-104768572D01*
X151339571Y-104730477D01*
X151263381Y-104692382D01*
X151187190Y-104616191D01*
X151149095Y-104501905D01*
X151149095Y-104311429D01*
X151187190Y-105727619D02*
X151149095Y-105841905D01*
X151149095Y-106032381D01*
X151187190Y-106108571D01*
X151225286Y-106146667D01*
X151301476Y-106184762D01*
X151377667Y-106184762D01*
X151453857Y-106146667D01*
X151491952Y-106108571D01*
X151530048Y-106032381D01*
X151568143Y-105880000D01*
X151606238Y-105803809D01*
X151644333Y-105765714D01*
X151720524Y-105727619D01*
X151796714Y-105727619D01*
X151872905Y-105765714D01*
X151911000Y-105803809D01*
X151949095Y-105880000D01*
X151949095Y-106070476D01*
X151911000Y-106184762D01*
X151225286Y-106984762D02*
X151187190Y-106946667D01*
X151149095Y-106832381D01*
X151149095Y-106756191D01*
X151187190Y-106641905D01*
X151263381Y-106565714D01*
X151339571Y-106527619D01*
X151491952Y-106489524D01*
X151606238Y-106489524D01*
X151758619Y-106527619D01*
X151834810Y-106565714D01*
X151911000Y-106641905D01*
X151949095Y-106756191D01*
X151949095Y-106832381D01*
X151911000Y-106946667D01*
X151872905Y-106984762D01*
X151149095Y-107708572D02*
X151149095Y-107327619D01*
X151949095Y-107327619D01*
D12*
X156052000Y-101057000D02*
X155352000Y-101057000D01*
X155352000Y-99857000D02*
X156052000Y-99857000D01*
X156052000Y-102708000D02*
X155352000Y-102708000D01*
X155352000Y-101508000D02*
X156052000Y-101508000D01*
X156052000Y-106010000D02*
X155352000Y-106010000D01*
X155352000Y-104810000D02*
X156052000Y-104810000D01*
X152482000Y-104767000D02*
X152482000Y-103767000D01*
X153842000Y-103767000D02*
X153842000Y-104767000D01*
X152482000Y-101846000D02*
X152482000Y-100846000D01*
X153842000Y-100846000D02*
X153842000Y-101846000D01*
X156202000Y-104439000D02*
X155202000Y-104439000D01*
X155202000Y-103079000D02*
X156202000Y-103079000D01*
D11*
X157852000Y-114418000D02*
X157327000Y-114418000D01*
X153552000Y-110118000D02*
X154077000Y-110118000D01*
X153552000Y-114418000D02*
X154077000Y-114418000D01*
X157852000Y-110118000D02*
X157852000Y-110643000D01*
X153552000Y-110118000D02*
X153552000Y-110643000D01*
X153552000Y-114418000D02*
X153552000Y-113893000D01*
X157852000Y-114418000D02*
X157852000Y-113893000D01*
X161925000Y-111125000D02*
X161925000Y-112395000D01*
X159385000Y-111125000D02*
X159385000Y-112395000D01*
X158202334Y-100814143D02*
X158154715Y-100861762D01*
X158011858Y-100909381D01*
X157916620Y-100909381D01*
X157773762Y-100861762D01*
X157678524Y-100766524D01*
X157630905Y-100671286D01*
X157583286Y-100480810D01*
X157583286Y-100337952D01*
X157630905Y-100147476D01*
X157678524Y-100052238D01*
X157773762Y-99957000D01*
X157916620Y-99909381D01*
X158011858Y-99909381D01*
X158154715Y-99957000D01*
X158202334Y-100004619D01*
X159154715Y-100909381D02*
X158583286Y-100909381D01*
X158869000Y-100909381D02*
X158869000Y-99909381D01*
X158773762Y-100052238D01*
X158678524Y-100147476D01*
X158583286Y-100195095D01*
X158202334Y-102465143D02*
X158154715Y-102512762D01*
X158011858Y-102560381D01*
X157916620Y-102560381D01*
X157773762Y-102512762D01*
X157678524Y-102417524D01*
X157630905Y-102322286D01*
X157583286Y-102131810D01*
X157583286Y-101988952D01*
X157630905Y-101798476D01*
X157678524Y-101703238D01*
X157773762Y-101608000D01*
X157916620Y-101560381D01*
X158011858Y-101560381D01*
X158154715Y-101608000D01*
X158202334Y-101655619D01*
X158583286Y-101655619D02*
X158630905Y-101608000D01*
X158726143Y-101560381D01*
X158964239Y-101560381D01*
X159059477Y-101608000D01*
X159107096Y-101655619D01*
X159154715Y-101750857D01*
X159154715Y-101846095D01*
X159107096Y-101988952D01*
X158535667Y-102560381D01*
X159154715Y-102560381D01*
X158202334Y-105767143D02*
X158154715Y-105814762D01*
X158011858Y-105862381D01*
X157916620Y-105862381D01*
X157773762Y-105814762D01*
X157678524Y-105719524D01*
X157630905Y-105624286D01*
X157583286Y-105433810D01*
X157583286Y-105290952D01*
X157630905Y-105100476D01*
X157678524Y-105005238D01*
X157773762Y-104910000D01*
X157916620Y-104862381D01*
X158011858Y-104862381D01*
X158154715Y-104910000D01*
X158202334Y-104957619D01*
X158535667Y-104862381D02*
X159154715Y-104862381D01*
X158821381Y-105243333D01*
X158964239Y-105243333D01*
X159059477Y-105290952D01*
X159107096Y-105338571D01*
X159154715Y-105433810D01*
X159154715Y-105671905D01*
X159107096Y-105767143D01*
X159059477Y-105814762D01*
X158964239Y-105862381D01*
X158678524Y-105862381D01*
X158583286Y-105814762D01*
X158535667Y-105767143D01*
X153952381Y-106666666D02*
X153476190Y-107000000D01*
X153952381Y-107238095D02*
X152952381Y-107238095D01*
X152952381Y-106857142D01*
X153000000Y-106761904D01*
X153047619Y-106714285D01*
X153142857Y-106666666D01*
X153285714Y-106666666D01*
X153380952Y-106714285D01*
X153428571Y-106761904D01*
X153476190Y-106857142D01*
X153476190Y-107238095D01*
X153952381Y-105714285D02*
X153952381Y-106285714D01*
X153952381Y-106000000D02*
X152952381Y-106000000D01*
X153095238Y-106095238D01*
X153190476Y-106190476D01*
X153238095Y-106285714D01*
X153952381Y-99166666D02*
X153476190Y-99500000D01*
X153952381Y-99738095D02*
X152952381Y-99738095D01*
X152952381Y-99357142D01*
X153000000Y-99261904D01*
X153047619Y-99214285D01*
X153142857Y-99166666D01*
X153285714Y-99166666D01*
X153380952Y-99214285D01*
X153428571Y-99261904D01*
X153476190Y-99357142D01*
X153476190Y-99738095D01*
X153047619Y-98785714D02*
X153000000Y-98738095D01*
X152952381Y-98642857D01*
X152952381Y-98404761D01*
X153000000Y-98309523D01*
X153047619Y-98261904D01*
X153142857Y-98214285D01*
X153238095Y-98214285D01*
X153380952Y-98261904D01*
X153952381Y-98833333D01*
X153952381Y-98214285D01*
X158202334Y-104211381D02*
X157869000Y-103735190D01*
X157630905Y-104211381D02*
X157630905Y-103211381D01*
X158011858Y-103211381D01*
X158107096Y-103259000D01*
X158154715Y-103306619D01*
X158202334Y-103401857D01*
X158202334Y-103544714D01*
X158154715Y-103639952D01*
X158107096Y-103687571D01*
X158011858Y-103735190D01*
X157630905Y-103735190D01*
X158535667Y-103211381D02*
X159154715Y-103211381D01*
X158821381Y-103592333D01*
X158964239Y-103592333D01*
X159059477Y-103639952D01*
X159107096Y-103687571D01*
X159154715Y-103782810D01*
X159154715Y-104020905D01*
X159107096Y-104116143D01*
X159059477Y-104163762D01*
X158964239Y-104211381D01*
X158678524Y-104211381D01*
X158583286Y-104163762D01*
X158535667Y-104116143D01*
X156845095Y-108291381D02*
X156845095Y-109100905D01*
X156892714Y-109196143D01*
X156940333Y-109243762D01*
X157035571Y-109291381D01*
X157226048Y-109291381D01*
X157321286Y-109243762D01*
X157368905Y-109196143D01*
X157416524Y-109100905D01*
X157416524Y-108291381D01*
X158416524Y-109291381D02*
X157845095Y-109291381D01*
X158130809Y-109291381D02*
X158130809Y-108291381D01*
X158035571Y-108434238D01*
X157940333Y-108529476D01*
X157845095Y-108577095D01*
X163250714Y-107132381D02*
X163250714Y-106132381D01*
X163488809Y-106132381D01*
X163631667Y-106180000D01*
X163726905Y-106275238D01*
X163774524Y-106370476D01*
X163822143Y-106560952D01*
X163822143Y-106703810D01*
X163774524Y-106894286D01*
X163726905Y-106989524D01*
X163631667Y-107084762D01*
X163488809Y-107132381D01*
X163250714Y-107132381D01*
X164203095Y-107084762D02*
X164345952Y-107132381D01*
X164584048Y-107132381D01*
X164679286Y-107084762D01*
X164726905Y-107037143D01*
X164774524Y-106941905D01*
X164774524Y-106846667D01*
X164726905Y-106751429D01*
X164679286Y-106703810D01*
X164584048Y-106656190D01*
X164393571Y-106608571D01*
X164298333Y-106560952D01*
X164250714Y-106513333D01*
X164203095Y-106418095D01*
X164203095Y-106322857D01*
X164250714Y-106227619D01*
X164298333Y-106180000D01*
X164393571Y-106132381D01*
X164631667Y-106132381D01*
X164774524Y-106180000D01*
X165726905Y-107132381D02*
X165155476Y-107132381D01*
X165441190Y-107132381D02*
X165441190Y-106132381D01*
X165345952Y-106275238D01*
X165250714Y-106370476D01*
X165155476Y-106418095D01*
M02*
