G04 #@! TF.FileFunction,Soldermask,Top*
%FSLAX46Y46*%
G04 Gerber Fmt 4.6, Leading zero omitted, Abs format (unit mm)*
G04 Created by KiCad (PCBNEW 4.0.7) date 08/19/18 18:09:51*
%MOMM*%
%LPD*%
G01*
G04 APERTURE LIST*
%ADD10C,0.100000*%
%ADD11R,1.200000X1.150000*%
%ADD12R,2.100000X2.100000*%
%ADD13O,2.100000X2.100000*%
%ADD14R,1.300000X0.900000*%
%ADD15R,0.900000X1.300000*%
%ADD16R,0.700000X1.250000*%
%ADD17R,1.250000X0.700000*%
%ADD18R,1.700000X1.700000*%
%ADD19C,2.100000*%
G04 APERTURE END LIST*
D10*
D11*
X156452000Y-100457000D03*
X154952000Y-100457000D03*
X156452000Y-102108000D03*
X154952000Y-102108000D03*
X156452000Y-105410000D03*
X154952000Y-105410000D03*
D12*
X149860000Y-101600000D03*
D13*
X149860000Y-104140000D03*
X149860000Y-106680000D03*
X149860000Y-109220000D03*
X149860000Y-111760000D03*
D14*
X153162000Y-103517000D03*
X153162000Y-105017000D03*
X153162000Y-100596000D03*
X153162000Y-102096000D03*
D15*
X154952000Y-103759000D03*
X156452000Y-103759000D03*
D16*
X156952000Y-110318000D03*
X156452000Y-110318000D03*
X155952000Y-110318000D03*
X155452000Y-110318000D03*
X154952000Y-110318000D03*
X154452000Y-110318000D03*
D17*
X153752000Y-111018000D03*
X153752000Y-111518000D03*
X153752000Y-112018000D03*
X153752000Y-112518000D03*
X153752000Y-113018000D03*
X153752000Y-113518000D03*
D16*
X154452000Y-114218000D03*
X154952000Y-114218000D03*
X155452000Y-114218000D03*
X155952000Y-114218000D03*
X156452000Y-114218000D03*
X156952000Y-114218000D03*
D17*
X157652000Y-113518000D03*
X157652000Y-113018000D03*
X157652000Y-112518000D03*
X157652000Y-112018000D03*
X157652000Y-111518000D03*
X157652000Y-111018000D03*
D18*
X155052000Y-112918000D03*
X156352000Y-112918000D03*
X155052000Y-111618000D03*
X156352000Y-111618000D03*
D19*
X168275000Y-114300000D03*
X168275000Y-111760000D03*
X168275000Y-109220000D03*
X168275000Y-106680000D03*
X168275000Y-104140000D03*
X168275000Y-101600000D03*
X168275000Y-99060000D03*
X160655000Y-111760000D03*
X160655000Y-114300000D03*
X160655000Y-109220000D03*
X160655000Y-106680000D03*
X160655000Y-104140000D03*
X160655000Y-101600000D03*
D12*
X160655000Y-99060000D03*
M02*
