G04 #@! TF.FileFunction,Legend,Bot*
%FSLAX46Y46*%
G04 Gerber Fmt 4.6, Leading zero omitted, Abs format (unit mm)*
G04 Created by KiCad (PCBNEW 4.0.7) date 08/19/18 18:09:51*
%MOMM*%
%LPD*%
G01*
G04 APERTURE LIST*
%ADD10C,0.100000*%
%ADD11C,0.200000*%
%ADD12C,0.150000*%
%ADD13C,0.120000*%
%ADD14C,0.010000*%
G04 APERTURE END LIST*
D10*
D11*
X151815571Y-115039857D02*
X151415571Y-116239857D01*
X151015571Y-115039857D01*
X149987000Y-116239857D02*
X150672715Y-116239857D01*
X150329857Y-116239857D02*
X150329857Y-115039857D01*
X150444143Y-115211286D01*
X150558429Y-115325571D01*
X150672715Y-115382714D01*
X149472715Y-116125571D02*
X149415572Y-116182714D01*
X149472715Y-116239857D01*
X149529858Y-116182714D01*
X149472715Y-116125571D01*
X149472715Y-116239857D01*
X148672714Y-115039857D02*
X148558429Y-115039857D01*
X148444143Y-115097000D01*
X148387000Y-115154143D01*
X148329857Y-115268429D01*
X148272714Y-115497000D01*
X148272714Y-115782714D01*
X148329857Y-116011286D01*
X148387000Y-116125571D01*
X148444143Y-116182714D01*
X148558429Y-116239857D01*
X148672714Y-116239857D01*
X148787000Y-116182714D01*
X148844143Y-116125571D01*
X148901286Y-116011286D01*
X148958429Y-115782714D01*
X148958429Y-115497000D01*
X148901286Y-115268429D01*
X148844143Y-115154143D01*
X148787000Y-115097000D01*
X148672714Y-115039857D01*
D12*
X156749428Y-104354381D02*
X156130380Y-104354381D01*
X156463714Y-104735333D01*
X156320856Y-104735333D01*
X156225618Y-104782952D01*
X156177999Y-104830571D01*
X156130380Y-104925810D01*
X156130380Y-105163905D01*
X156177999Y-105259143D01*
X156225618Y-105306762D01*
X156320856Y-105354381D01*
X156606571Y-105354381D01*
X156701809Y-105306762D01*
X156749428Y-105259143D01*
X155701809Y-105259143D02*
X155654190Y-105306762D01*
X155701809Y-105354381D01*
X155749428Y-105306762D01*
X155701809Y-105259143D01*
X155701809Y-105354381D01*
X155320857Y-104354381D02*
X154701809Y-104354381D01*
X155035143Y-104735333D01*
X154892285Y-104735333D01*
X154797047Y-104782952D01*
X154749428Y-104830571D01*
X154701809Y-104925810D01*
X154701809Y-105163905D01*
X154749428Y-105259143D01*
X154797047Y-105306762D01*
X154892285Y-105354381D01*
X155178000Y-105354381D01*
X155273238Y-105306762D01*
X155320857Y-105259143D01*
X154273238Y-104973429D02*
X153511333Y-104973429D01*
X152558952Y-104354381D02*
X153035143Y-104354381D01*
X153082762Y-104830571D01*
X153035143Y-104782952D01*
X152939905Y-104735333D01*
X152701809Y-104735333D01*
X152606571Y-104782952D01*
X152558952Y-104830571D01*
X152511333Y-104925810D01*
X152511333Y-105163905D01*
X152558952Y-105259143D01*
X152606571Y-105306762D01*
X152701809Y-105354381D01*
X152939905Y-105354381D01*
X153035143Y-105306762D01*
X153082762Y-105259143D01*
X152225619Y-104354381D02*
X151892286Y-105354381D01*
X151558952Y-104354381D01*
X155003286Y-102671619D02*
X154955667Y-102624000D01*
X154860429Y-102576381D01*
X154622333Y-102576381D01*
X154527095Y-102624000D01*
X154479476Y-102671619D01*
X154431857Y-102766857D01*
X154431857Y-102862095D01*
X154479476Y-103004952D01*
X155050905Y-103576381D01*
X154431857Y-103576381D01*
X153812810Y-102576381D02*
X153717571Y-102576381D01*
X153622333Y-102624000D01*
X153574714Y-102671619D01*
X153527095Y-102766857D01*
X153479476Y-102957333D01*
X153479476Y-103195429D01*
X153527095Y-103385905D01*
X153574714Y-103481143D01*
X153622333Y-103528762D01*
X153717571Y-103576381D01*
X153812810Y-103576381D01*
X153908048Y-103528762D01*
X153955667Y-103481143D01*
X154003286Y-103385905D01*
X154050905Y-103195429D01*
X154050905Y-102957333D01*
X154003286Y-102766857D01*
X153955667Y-102671619D01*
X153908048Y-102624000D01*
X153812810Y-102576381D01*
X152527095Y-103576381D02*
X153098524Y-103576381D01*
X152812810Y-103576381D02*
X152812810Y-102576381D01*
X152908048Y-102719238D01*
X153003286Y-102814476D01*
X153098524Y-102862095D01*
X151955667Y-103004952D02*
X152050905Y-102957333D01*
X152098524Y-102909714D01*
X152146143Y-102814476D01*
X152146143Y-102766857D01*
X152098524Y-102671619D01*
X152050905Y-102624000D01*
X151955667Y-102576381D01*
X151765190Y-102576381D01*
X151669952Y-102624000D01*
X151622333Y-102671619D01*
X151574714Y-102766857D01*
X151574714Y-102814476D01*
X151622333Y-102909714D01*
X151669952Y-102957333D01*
X151765190Y-103004952D01*
X151955667Y-103004952D01*
X152050905Y-103052571D01*
X152098524Y-103100190D01*
X152146143Y-103195429D01*
X152146143Y-103385905D01*
X152098524Y-103481143D01*
X152050905Y-103528762D01*
X151955667Y-103576381D01*
X151765190Y-103576381D01*
X151669952Y-103528762D01*
X151622333Y-103481143D01*
X151574714Y-103385905D01*
X151574714Y-103195429D01*
X151622333Y-103100190D01*
X151669952Y-103052571D01*
X151765190Y-103004952D01*
X158471762Y-101798381D02*
X158471762Y-100798381D01*
X158090809Y-100798381D01*
X157995571Y-100846000D01*
X157947952Y-100893619D01*
X157900333Y-100988857D01*
X157900333Y-101131714D01*
X157947952Y-101226952D01*
X157995571Y-101274571D01*
X158090809Y-101322190D01*
X158471762Y-101322190D01*
X156757476Y-101750762D02*
X156614619Y-101798381D01*
X156376523Y-101798381D01*
X156281285Y-101750762D01*
X156233666Y-101703143D01*
X156186047Y-101607905D01*
X156186047Y-101512667D01*
X156233666Y-101417429D01*
X156281285Y-101369810D01*
X156376523Y-101322190D01*
X156567000Y-101274571D01*
X156662238Y-101226952D01*
X156709857Y-101179333D01*
X156757476Y-101084095D01*
X156757476Y-100988857D01*
X156709857Y-100893619D01*
X156662238Y-100846000D01*
X156567000Y-100798381D01*
X156328904Y-100798381D01*
X156186047Y-100846000D01*
X155900333Y-101131714D02*
X155519381Y-101131714D01*
X155757476Y-100798381D02*
X155757476Y-101655524D01*
X155709857Y-101750762D01*
X155614619Y-101798381D01*
X155519381Y-101798381D01*
X155186047Y-101798381D02*
X155186047Y-101131714D01*
X155186047Y-100798381D02*
X155233666Y-100846000D01*
X155186047Y-100893619D01*
X155138428Y-100846000D01*
X155186047Y-100798381D01*
X155186047Y-100893619D01*
X154709857Y-101131714D02*
X154709857Y-101798381D01*
X154709857Y-101226952D02*
X154662238Y-101179333D01*
X154567000Y-101131714D01*
X154424142Y-101131714D01*
X154328904Y-101179333D01*
X154281285Y-101274571D01*
X154281285Y-101798381D01*
X153852714Y-101750762D02*
X153757476Y-101798381D01*
X153567000Y-101798381D01*
X153471761Y-101750762D01*
X153424142Y-101655524D01*
X153424142Y-101607905D01*
X153471761Y-101512667D01*
X153567000Y-101465048D01*
X153709857Y-101465048D01*
X153805095Y-101417429D01*
X153852714Y-101322190D01*
X153852714Y-101274571D01*
X153805095Y-101179333D01*
X153709857Y-101131714D01*
X153567000Y-101131714D01*
X153471761Y-101179333D01*
X152852714Y-101798381D02*
X152947952Y-101750762D01*
X152995571Y-101703143D01*
X153043190Y-101607905D01*
X153043190Y-101322190D01*
X152995571Y-101226952D01*
X152947952Y-101179333D01*
X152852714Y-101131714D01*
X152709856Y-101131714D01*
X152614618Y-101179333D01*
X152566999Y-101226952D01*
X152519380Y-101322190D01*
X152519380Y-101607905D01*
X152566999Y-101703143D01*
X152614618Y-101750762D01*
X152709856Y-101798381D01*
X152852714Y-101798381D01*
X152090809Y-101131714D02*
X152090809Y-101798381D01*
X152090809Y-101226952D02*
X152043190Y-101179333D01*
X151947952Y-101131714D01*
X151805094Y-101131714D01*
X151709856Y-101179333D01*
X151662237Y-101274571D01*
X151662237Y-101798381D01*
X166488904Y-112245143D02*
X166536523Y-112292762D01*
X166679380Y-112340381D01*
X166774618Y-112340381D01*
X166917476Y-112292762D01*
X167012714Y-112197524D01*
X167060333Y-112102286D01*
X167107952Y-111911810D01*
X167107952Y-111768952D01*
X167060333Y-111578476D01*
X167012714Y-111483238D01*
X166917476Y-111388000D01*
X166774618Y-111340381D01*
X166679380Y-111340381D01*
X166536523Y-111388000D01*
X166488904Y-111435619D01*
X165869857Y-111340381D02*
X165679380Y-111340381D01*
X165584142Y-111388000D01*
X165488904Y-111483238D01*
X165441285Y-111673714D01*
X165441285Y-112007048D01*
X165488904Y-112197524D01*
X165584142Y-112292762D01*
X165679380Y-112340381D01*
X165869857Y-112340381D01*
X165965095Y-112292762D01*
X166060333Y-112197524D01*
X166107952Y-112007048D01*
X166107952Y-111673714D01*
X166060333Y-111483238D01*
X165965095Y-111388000D01*
X165869857Y-111340381D01*
X165012714Y-112340381D02*
X165012714Y-111340381D01*
X164441285Y-112340381D01*
X164441285Y-111340381D01*
X163965095Y-112340381D02*
X163965095Y-111340381D01*
X163393666Y-112340381D01*
X163393666Y-111340381D01*
X166298429Y-112990381D02*
X166107952Y-112990381D01*
X166012714Y-113038000D01*
X165917476Y-113133238D01*
X165869857Y-113323714D01*
X165869857Y-113657048D01*
X165917476Y-113847524D01*
X166012714Y-113942762D01*
X166107952Y-113990381D01*
X166298429Y-113990381D01*
X166393667Y-113942762D01*
X166488905Y-113847524D01*
X166536524Y-113657048D01*
X166536524Y-113323714D01*
X166488905Y-113133238D01*
X166393667Y-113038000D01*
X166298429Y-112990381D01*
X165441286Y-113990381D02*
X165441286Y-112990381D01*
X164869857Y-113990381D01*
X164869857Y-112990381D01*
X164393667Y-113466571D02*
X164060333Y-113466571D01*
X163917476Y-113990381D02*
X164393667Y-113990381D01*
X164393667Y-112990381D01*
X163917476Y-112990381D01*
X166679381Y-114640381D02*
X166488904Y-114640381D01*
X166393666Y-114688000D01*
X166298428Y-114783238D01*
X166250809Y-114973714D01*
X166250809Y-115307048D01*
X166298428Y-115497524D01*
X166393666Y-115592762D01*
X166488904Y-115640381D01*
X166679381Y-115640381D01*
X166774619Y-115592762D01*
X166869857Y-115497524D01*
X166917476Y-115307048D01*
X166917476Y-114973714D01*
X166869857Y-114783238D01*
X166774619Y-114688000D01*
X166679381Y-114640381D01*
X165822238Y-115640381D02*
X165822238Y-114640381D01*
X165250809Y-115640381D01*
X165250809Y-114640381D01*
X164298428Y-115640381D02*
X164774619Y-115640381D01*
X164774619Y-114640381D01*
X163774619Y-115164190D02*
X163774619Y-115640381D01*
X164107952Y-114640381D02*
X163774619Y-115164190D01*
X163441285Y-114640381D01*
X166965095Y-98655667D02*
X166488904Y-98655667D01*
X167060333Y-98941381D02*
X166727000Y-97941381D01*
X166393666Y-98941381D01*
X166060333Y-98941381D02*
X166060333Y-97941381D01*
X165822238Y-97941381D01*
X165679380Y-97989000D01*
X165584142Y-98084238D01*
X165536523Y-98179476D01*
X165488904Y-98369952D01*
X165488904Y-98512810D01*
X165536523Y-98703286D01*
X165584142Y-98798524D01*
X165679380Y-98893762D01*
X165822238Y-98941381D01*
X166060333Y-98941381D01*
X165060333Y-98941381D02*
X165060333Y-97941381D01*
X164822238Y-97941381D01*
X164679380Y-97989000D01*
X164584142Y-98084238D01*
X164536523Y-98179476D01*
X164488904Y-98369952D01*
X164488904Y-98512810D01*
X164536523Y-98703286D01*
X164584142Y-98798524D01*
X164679380Y-98893762D01*
X164822238Y-98941381D01*
X165060333Y-98941381D01*
X163488904Y-98941381D02*
X163822238Y-98465190D01*
X164060333Y-98941381D02*
X164060333Y-97941381D01*
X163679380Y-97941381D01*
X163584142Y-97989000D01*
X163536523Y-98036619D01*
X163488904Y-98131857D01*
X163488904Y-98274714D01*
X163536523Y-98369952D01*
X163584142Y-98417571D01*
X163679380Y-98465190D01*
X164060333Y-98465190D01*
X166369857Y-100543762D02*
X166227000Y-100591381D01*
X165988904Y-100591381D01*
X165893666Y-100543762D01*
X165846047Y-100496143D01*
X165798428Y-100400905D01*
X165798428Y-100305667D01*
X165846047Y-100210429D01*
X165893666Y-100162810D01*
X165988904Y-100115190D01*
X166179381Y-100067571D01*
X166274619Y-100019952D01*
X166322238Y-99972333D01*
X166369857Y-99877095D01*
X166369857Y-99781857D01*
X166322238Y-99686619D01*
X166274619Y-99639000D01*
X166179381Y-99591381D01*
X165941285Y-99591381D01*
X165798428Y-99639000D01*
X165369857Y-100067571D02*
X165036523Y-100067571D01*
X164893666Y-100591381D02*
X165369857Y-100591381D01*
X165369857Y-99591381D01*
X164893666Y-99591381D01*
X163988904Y-100591381D02*
X164465095Y-100591381D01*
X164465095Y-99591381D01*
D13*
X151190000Y-113090000D02*
X148530000Y-113090000D01*
X151190000Y-102870000D02*
X151190000Y-113090000D01*
X148530000Y-102870000D02*
X148530000Y-113090000D01*
X151190000Y-102870000D02*
X148530000Y-102870000D01*
X151190000Y-101600000D02*
X151190000Y-100270000D01*
X151190000Y-100270000D02*
X149860000Y-100270000D01*
X164465000Y-108838000D02*
X167005000Y-108838000D01*
X167005000Y-110618000D02*
X164465000Y-110618000D01*
X167005000Y-110618000D02*
X167005000Y-108838000D01*
X164465000Y-108838000D02*
X164465000Y-110618000D01*
X164465000Y-103758000D02*
X167005000Y-103758000D01*
X167005000Y-105538000D02*
X164465000Y-105538000D01*
X167005000Y-105538000D02*
X167005000Y-103758000D01*
X164465000Y-103758000D02*
X164465000Y-105538000D01*
X164465000Y-106298000D02*
X167005000Y-106298000D01*
X167005000Y-108078000D02*
X164465000Y-108078000D01*
X167005000Y-108078000D02*
X167005000Y-106298000D01*
X164465000Y-106298000D02*
X164465000Y-108078000D01*
X164465000Y-101218000D02*
X167005000Y-101218000D01*
X167005000Y-102998000D02*
X164465000Y-102998000D01*
X167005000Y-102998000D02*
X167005000Y-101218000D01*
X164465000Y-101218000D02*
X164465000Y-102998000D01*
D14*
G36*
X157564666Y-99546833D02*
X157374166Y-99546833D01*
X157374166Y-99716167D01*
X157564666Y-99716167D01*
X157564666Y-100287667D01*
X157734000Y-100287667D01*
X157734000Y-99356333D01*
X157564666Y-99356333D01*
X157564666Y-99546833D01*
X157564666Y-99546833D01*
G37*
X157564666Y-99546833D02*
X157374166Y-99546833D01*
X157374166Y-99716167D01*
X157564666Y-99716167D01*
X157564666Y-100287667D01*
X157734000Y-100287667D01*
X157734000Y-99356333D01*
X157564666Y-99356333D01*
X157564666Y-99546833D01*
G36*
X156781500Y-100287667D02*
X156972000Y-100287667D01*
X156972000Y-99716167D01*
X157162500Y-99716167D01*
X157162500Y-99546833D01*
X156972000Y-99546833D01*
X156972000Y-99356333D01*
X156781500Y-99356333D01*
X156781500Y-100287667D01*
X156781500Y-100287667D01*
G37*
X156781500Y-100287667D02*
X156972000Y-100287667D01*
X156972000Y-99716167D01*
X157162500Y-99716167D01*
X157162500Y-99546833D01*
X156972000Y-99546833D01*
X156972000Y-99356333D01*
X156781500Y-99356333D01*
X156781500Y-100287667D01*
G36*
X156210000Y-99737333D02*
X155786666Y-99737333D01*
X155786666Y-99546833D01*
X155617333Y-99546833D01*
X155617333Y-100287667D01*
X155786666Y-100287667D01*
X155786666Y-99906667D01*
X156210000Y-99906667D01*
X156210000Y-100287667D01*
X156379333Y-100287667D01*
X156379333Y-99546833D01*
X156210000Y-99546833D01*
X156210000Y-99737333D01*
X156210000Y-99737333D01*
G37*
X156210000Y-99737333D02*
X155786666Y-99737333D01*
X155786666Y-99546833D01*
X155617333Y-99546833D01*
X155617333Y-100287667D01*
X155786666Y-100287667D01*
X155786666Y-99906667D01*
X156210000Y-99906667D01*
X156210000Y-100287667D01*
X156379333Y-100287667D01*
X156379333Y-99546833D01*
X156210000Y-99546833D01*
X156210000Y-99737333D01*
G36*
X154664833Y-99525667D02*
X154855333Y-99525667D01*
X154855333Y-100287667D01*
X155024666Y-100287667D01*
X155024666Y-99525667D01*
X155215166Y-99525667D01*
X155215166Y-99356333D01*
X154664833Y-99356333D01*
X154664833Y-99525667D01*
X154664833Y-99525667D01*
G37*
X154664833Y-99525667D02*
X154855333Y-99525667D01*
X154855333Y-100287667D01*
X155024666Y-100287667D01*
X155024666Y-99525667D01*
X155215166Y-99525667D01*
X155215166Y-99356333D01*
X154664833Y-99356333D01*
X154664833Y-99525667D01*
G36*
X153691166Y-99525667D02*
X154072166Y-99525667D01*
X154072166Y-99737333D01*
X153691166Y-99737333D01*
X153691166Y-100097167D01*
X153860500Y-100097167D01*
X153860500Y-99906667D01*
X154072166Y-99906667D01*
X154072166Y-100287667D01*
X154241500Y-100287667D01*
X154241500Y-99356333D01*
X153691166Y-99356333D01*
X153691166Y-99525667D01*
X153691166Y-99525667D01*
G37*
X153691166Y-99525667D02*
X154072166Y-99525667D01*
X154072166Y-99737333D01*
X153691166Y-99737333D01*
X153691166Y-100097167D01*
X153860500Y-100097167D01*
X153860500Y-99906667D01*
X154072166Y-99906667D01*
X154072166Y-100287667D01*
X154241500Y-100287667D01*
X154241500Y-99356333D01*
X153691166Y-99356333D01*
X153691166Y-99525667D01*
G36*
X153531140Y-100120370D02*
X153507059Y-100134627D01*
X153500870Y-100173326D01*
X153500666Y-100203000D01*
X153502703Y-100257193D01*
X153516961Y-100281274D01*
X153555659Y-100287463D01*
X153585333Y-100287667D01*
X153639527Y-100285630D01*
X153663608Y-100271372D01*
X153669796Y-100232674D01*
X153670000Y-100203000D01*
X153667963Y-100148806D01*
X153653706Y-100124725D01*
X153615007Y-100118537D01*
X153585333Y-100118333D01*
X153531140Y-100120370D01*
X153531140Y-100120370D01*
G37*
X153531140Y-100120370D02*
X153507059Y-100134627D01*
X153500870Y-100173326D01*
X153500666Y-100203000D01*
X153502703Y-100257193D01*
X153516961Y-100281274D01*
X153555659Y-100287463D01*
X153585333Y-100287667D01*
X153639527Y-100285630D01*
X153663608Y-100271372D01*
X153669796Y-100232674D01*
X153670000Y-100203000D01*
X153667963Y-100148806D01*
X153653706Y-100124725D01*
X153615007Y-100118537D01*
X153585333Y-100118333D01*
X153531140Y-100120370D01*
G36*
X152908000Y-100287667D02*
X153098500Y-100287667D01*
X153098500Y-99356333D01*
X152908000Y-99356333D01*
X152908000Y-100287667D01*
X152908000Y-100287667D01*
G37*
X152908000Y-100287667D02*
X153098500Y-100287667D01*
X153098500Y-99356333D01*
X152908000Y-99356333D01*
X152908000Y-100287667D01*
G36*
X152366973Y-100120370D02*
X152342892Y-100134627D01*
X152336703Y-100173326D01*
X152336500Y-100203000D01*
X152338537Y-100257193D01*
X152352794Y-100281274D01*
X152391492Y-100287463D01*
X152421166Y-100287667D01*
X152475360Y-100285630D01*
X152499441Y-100271372D01*
X152505630Y-100232674D01*
X152505833Y-100203000D01*
X152503796Y-100148806D01*
X152489539Y-100124725D01*
X152450841Y-100118537D01*
X152421166Y-100118333D01*
X152366973Y-100120370D01*
X152366973Y-100120370D01*
G37*
X152366973Y-100120370D02*
X152342892Y-100134627D01*
X152336703Y-100173326D01*
X152336500Y-100203000D01*
X152338537Y-100257193D01*
X152352794Y-100281274D01*
X152391492Y-100287463D01*
X152421166Y-100287667D01*
X152475360Y-100285630D01*
X152499441Y-100271372D01*
X152505630Y-100232674D01*
X152505833Y-100203000D01*
X152503796Y-100148806D01*
X152489539Y-100124725D01*
X152450841Y-100118537D01*
X152421166Y-100118333D01*
X152366973Y-100120370D01*
G36*
X151553333Y-100287667D02*
X151743833Y-100287667D01*
X151743833Y-100118333D01*
X151553333Y-100118333D01*
X151553333Y-100287667D01*
X151553333Y-100287667D01*
G37*
X151553333Y-100287667D02*
X151743833Y-100287667D01*
X151743833Y-100118333D01*
X151553333Y-100118333D01*
X151553333Y-100287667D01*
G36*
X152176473Y-99929870D02*
X152152392Y-99944127D01*
X152146203Y-99982826D01*
X152146000Y-100012500D01*
X152148037Y-100066693D01*
X152162294Y-100090774D01*
X152200992Y-100096963D01*
X152230666Y-100097167D01*
X152284860Y-100095130D01*
X152308941Y-100080872D01*
X152315130Y-100042174D01*
X152315333Y-100012500D01*
X152313296Y-99958306D01*
X152299039Y-99934225D01*
X152260341Y-99928037D01*
X152230666Y-99927833D01*
X152176473Y-99929870D01*
X152176473Y-99929870D01*
G37*
X152176473Y-99929870D02*
X152152392Y-99944127D01*
X152146203Y-99982826D01*
X152146000Y-100012500D01*
X152148037Y-100066693D01*
X152162294Y-100090774D01*
X152200992Y-100096963D01*
X152230666Y-100097167D01*
X152284860Y-100095130D01*
X152308941Y-100080872D01*
X152315130Y-100042174D01*
X152315333Y-100012500D01*
X152313296Y-99958306D01*
X152299039Y-99934225D01*
X152260341Y-99928037D01*
X152230666Y-99927833D01*
X152176473Y-99929870D01*
G36*
X151795473Y-99929870D02*
X151771392Y-99944127D01*
X151765203Y-99982826D01*
X151765000Y-100012500D01*
X151767037Y-100066693D01*
X151781294Y-100090774D01*
X151819992Y-100096963D01*
X151849666Y-100097167D01*
X151903860Y-100095130D01*
X151927941Y-100080872D01*
X151934130Y-100042174D01*
X151934333Y-100012500D01*
X151932296Y-99958306D01*
X151918039Y-99934225D01*
X151879341Y-99928037D01*
X151849666Y-99927833D01*
X151795473Y-99929870D01*
X151795473Y-99929870D01*
G37*
X151795473Y-99929870D02*
X151771392Y-99944127D01*
X151765203Y-99982826D01*
X151765000Y-100012500D01*
X151767037Y-100066693D01*
X151781294Y-100090774D01*
X151819992Y-100096963D01*
X151849666Y-100097167D01*
X151903860Y-100095130D01*
X151927941Y-100080872D01*
X151934130Y-100042174D01*
X151934333Y-100012500D01*
X151932296Y-99958306D01*
X151918039Y-99934225D01*
X151879341Y-99928037D01*
X151849666Y-99927833D01*
X151795473Y-99929870D01*
G36*
X157214140Y-99739370D02*
X157190059Y-99753627D01*
X157183870Y-99792326D01*
X157183666Y-99822000D01*
X157185703Y-99876193D01*
X157199961Y-99900274D01*
X157238659Y-99906463D01*
X157268333Y-99906667D01*
X157322527Y-99904630D01*
X157346608Y-99890372D01*
X157352796Y-99851674D01*
X157353000Y-99822000D01*
X157350963Y-99767806D01*
X157336706Y-99743725D01*
X157298007Y-99737537D01*
X157268333Y-99737333D01*
X157214140Y-99739370D01*
X157214140Y-99739370D01*
G37*
X157214140Y-99739370D02*
X157190059Y-99753627D01*
X157183870Y-99792326D01*
X157183666Y-99822000D01*
X157185703Y-99876193D01*
X157199961Y-99900274D01*
X157238659Y-99906463D01*
X157268333Y-99906667D01*
X157322527Y-99904630D01*
X157346608Y-99890372D01*
X157352796Y-99851674D01*
X157353000Y-99822000D01*
X157350963Y-99767806D01*
X157336706Y-99743725D01*
X157298007Y-99737537D01*
X157268333Y-99737333D01*
X157214140Y-99739370D01*
G36*
X151985973Y-99739370D02*
X151961892Y-99753627D01*
X151955703Y-99792326D01*
X151955500Y-99822000D01*
X151957537Y-99876193D01*
X151971794Y-99900274D01*
X152010492Y-99906463D01*
X152040166Y-99906667D01*
X152094360Y-99904630D01*
X152118441Y-99890372D01*
X152124630Y-99851674D01*
X152124833Y-99822000D01*
X152122796Y-99767806D01*
X152108539Y-99743725D01*
X152069841Y-99737537D01*
X152040166Y-99737333D01*
X151985973Y-99739370D01*
X151985973Y-99739370D01*
G37*
X151985973Y-99739370D02*
X151961892Y-99753627D01*
X151955703Y-99792326D01*
X151955500Y-99822000D01*
X151957537Y-99876193D01*
X151971794Y-99900274D01*
X152010492Y-99906463D01*
X152040166Y-99906667D01*
X152094360Y-99904630D01*
X152118441Y-99890372D01*
X152124630Y-99851674D01*
X152124833Y-99822000D01*
X152122796Y-99767806D01*
X152108539Y-99743725D01*
X152069841Y-99737537D01*
X152040166Y-99737333D01*
X151985973Y-99739370D01*
G36*
X153531140Y-99548870D02*
X153507059Y-99563127D01*
X153500870Y-99601826D01*
X153500666Y-99631500D01*
X153502703Y-99685693D01*
X153516961Y-99709774D01*
X153555659Y-99715963D01*
X153585333Y-99716167D01*
X153639527Y-99714130D01*
X153663608Y-99699872D01*
X153669796Y-99661174D01*
X153670000Y-99631500D01*
X153667963Y-99577306D01*
X153653706Y-99553225D01*
X153615007Y-99547037D01*
X153585333Y-99546833D01*
X153531140Y-99548870D01*
X153531140Y-99548870D01*
G37*
X153531140Y-99548870D02*
X153507059Y-99563127D01*
X153500870Y-99601826D01*
X153500666Y-99631500D01*
X153502703Y-99685693D01*
X153516961Y-99709774D01*
X153555659Y-99715963D01*
X153585333Y-99716167D01*
X153639527Y-99714130D01*
X153663608Y-99699872D01*
X153669796Y-99661174D01*
X153670000Y-99631500D01*
X153667963Y-99577306D01*
X153653706Y-99553225D01*
X153615007Y-99547037D01*
X153585333Y-99546833D01*
X153531140Y-99548870D01*
G36*
X152176473Y-99548870D02*
X152152392Y-99563127D01*
X152146203Y-99601826D01*
X152146000Y-99631500D01*
X152148037Y-99685693D01*
X152162294Y-99709774D01*
X152200992Y-99715963D01*
X152230666Y-99716167D01*
X152284860Y-99714130D01*
X152308941Y-99699872D01*
X152315130Y-99661174D01*
X152315333Y-99631500D01*
X152313296Y-99577306D01*
X152299039Y-99553225D01*
X152260341Y-99547037D01*
X152230666Y-99546833D01*
X152176473Y-99548870D01*
X152176473Y-99548870D01*
G37*
X152176473Y-99548870D02*
X152152392Y-99563127D01*
X152146203Y-99601826D01*
X152146000Y-99631500D01*
X152148037Y-99685693D01*
X152162294Y-99709774D01*
X152200992Y-99715963D01*
X152230666Y-99716167D01*
X152284860Y-99714130D01*
X152308941Y-99699872D01*
X152315130Y-99661174D01*
X152315333Y-99631500D01*
X152313296Y-99577306D01*
X152299039Y-99553225D01*
X152260341Y-99547037D01*
X152230666Y-99546833D01*
X152176473Y-99548870D01*
G36*
X151795473Y-99548870D02*
X151771392Y-99563127D01*
X151765203Y-99601826D01*
X151765000Y-99631500D01*
X151767037Y-99685693D01*
X151781294Y-99709774D01*
X151819992Y-99715963D01*
X151849666Y-99716167D01*
X151903860Y-99714130D01*
X151927941Y-99699872D01*
X151934130Y-99661174D01*
X151934333Y-99631500D01*
X151932296Y-99577306D01*
X151918039Y-99553225D01*
X151879341Y-99547037D01*
X151849666Y-99546833D01*
X151795473Y-99548870D01*
X151795473Y-99548870D01*
G37*
X151795473Y-99548870D02*
X151771392Y-99563127D01*
X151765203Y-99601826D01*
X151765000Y-99631500D01*
X151767037Y-99685693D01*
X151781294Y-99709774D01*
X151819992Y-99715963D01*
X151849666Y-99716167D01*
X151903860Y-99714130D01*
X151927941Y-99699872D01*
X151934130Y-99661174D01*
X151934333Y-99631500D01*
X151932296Y-99577306D01*
X151918039Y-99553225D01*
X151879341Y-99547037D01*
X151849666Y-99546833D01*
X151795473Y-99548870D01*
G36*
X155807833Y-99525667D02*
X156188833Y-99525667D01*
X156188833Y-99356333D01*
X155807833Y-99356333D01*
X155807833Y-99525667D01*
X155807833Y-99525667D01*
G37*
X155807833Y-99525667D02*
X156188833Y-99525667D01*
X156188833Y-99356333D01*
X155807833Y-99356333D01*
X155807833Y-99525667D01*
G36*
X152366973Y-99358370D02*
X152342892Y-99372627D01*
X152336703Y-99411326D01*
X152336500Y-99441000D01*
X152338537Y-99495193D01*
X152352794Y-99519274D01*
X152391492Y-99525463D01*
X152421166Y-99525667D01*
X152475360Y-99523630D01*
X152499441Y-99509372D01*
X152505630Y-99470674D01*
X152505833Y-99441000D01*
X152503796Y-99386806D01*
X152489539Y-99362725D01*
X152450841Y-99356537D01*
X152421166Y-99356333D01*
X152366973Y-99358370D01*
X152366973Y-99358370D01*
G37*
X152366973Y-99358370D02*
X152342892Y-99372627D01*
X152336703Y-99411326D01*
X152336500Y-99441000D01*
X152338537Y-99495193D01*
X152352794Y-99519274D01*
X152391492Y-99525463D01*
X152421166Y-99525667D01*
X152475360Y-99523630D01*
X152499441Y-99509372D01*
X152505630Y-99470674D01*
X152505833Y-99441000D01*
X152503796Y-99386806D01*
X152489539Y-99362725D01*
X152450841Y-99356537D01*
X152421166Y-99356333D01*
X152366973Y-99358370D01*
G36*
X151553333Y-99525667D02*
X151743833Y-99525667D01*
X151743833Y-99356333D01*
X151553333Y-99356333D01*
X151553333Y-99525667D01*
X151553333Y-99525667D01*
G37*
X151553333Y-99525667D02*
X151743833Y-99525667D01*
X151743833Y-99356333D01*
X151553333Y-99356333D01*
X151553333Y-99525667D01*
D12*
X159385000Y-111125000D02*
X159385000Y-112395000D01*
X161925000Y-111125000D02*
X161925000Y-112395000D01*
X150193333Y-98722381D02*
X150193333Y-99436667D01*
X150240953Y-99579524D01*
X150336191Y-99674762D01*
X150479048Y-99722381D01*
X150574286Y-99722381D01*
X149193333Y-99722381D02*
X149764762Y-99722381D01*
X149479048Y-99722381D02*
X149479048Y-98722381D01*
X149574286Y-98865238D01*
X149669524Y-98960476D01*
X149764762Y-99008095D01*
X163679095Y-109180381D02*
X163869572Y-109180381D01*
X163964810Y-109228000D01*
X164012429Y-109275619D01*
X164107667Y-109418476D01*
X164155286Y-109608952D01*
X164155286Y-109989905D01*
X164107667Y-110085143D01*
X164060048Y-110132762D01*
X163964810Y-110180381D01*
X163774333Y-110180381D01*
X163679095Y-110132762D01*
X163631476Y-110085143D01*
X163583857Y-109989905D01*
X163583857Y-109751810D01*
X163631476Y-109656571D01*
X163679095Y-109608952D01*
X163774333Y-109561333D01*
X163964810Y-109561333D01*
X164060048Y-109608952D01*
X164107667Y-109656571D01*
X164155286Y-109751810D01*
X163250524Y-109180381D02*
X162631476Y-109180381D01*
X162964810Y-109561333D01*
X162821952Y-109561333D01*
X162726714Y-109608952D01*
X162679095Y-109656571D01*
X162631476Y-109751810D01*
X162631476Y-109989905D01*
X162679095Y-110085143D01*
X162726714Y-110132762D01*
X162821952Y-110180381D01*
X163107667Y-110180381D01*
X163202905Y-110132762D01*
X163250524Y-110085143D01*
X162202905Y-110180381D02*
X162202905Y-109180381D01*
X161774333Y-110180381D02*
X161774333Y-109656571D01*
X161821952Y-109561333D01*
X161917190Y-109513714D01*
X162060048Y-109513714D01*
X162155286Y-109561333D01*
X162202905Y-109608952D01*
X163679095Y-104100381D02*
X163869572Y-104100381D01*
X163964810Y-104148000D01*
X164012429Y-104195619D01*
X164107667Y-104338476D01*
X164155286Y-104528952D01*
X164155286Y-104909905D01*
X164107667Y-105005143D01*
X164060048Y-105052762D01*
X163964810Y-105100381D01*
X163774333Y-105100381D01*
X163679095Y-105052762D01*
X163631476Y-105005143D01*
X163583857Y-104909905D01*
X163583857Y-104671810D01*
X163631476Y-104576571D01*
X163679095Y-104528952D01*
X163774333Y-104481333D01*
X163964810Y-104481333D01*
X164060048Y-104528952D01*
X164107667Y-104576571D01*
X164155286Y-104671810D01*
X163202905Y-104195619D02*
X163155286Y-104148000D01*
X163060048Y-104100381D01*
X162821952Y-104100381D01*
X162726714Y-104148000D01*
X162679095Y-104195619D01*
X162631476Y-104290857D01*
X162631476Y-104386095D01*
X162679095Y-104528952D01*
X163250524Y-105100381D01*
X162631476Y-105100381D01*
X162202905Y-105100381D02*
X162202905Y-104100381D01*
X161774333Y-105100381D02*
X161774333Y-104576571D01*
X161821952Y-104481333D01*
X161917190Y-104433714D01*
X162060048Y-104433714D01*
X162155286Y-104481333D01*
X162202905Y-104528952D01*
X163679095Y-106513381D02*
X163869572Y-106513381D01*
X163964810Y-106561000D01*
X164012429Y-106608619D01*
X164107667Y-106751476D01*
X164155286Y-106941952D01*
X164155286Y-107322905D01*
X164107667Y-107418143D01*
X164060048Y-107465762D01*
X163964810Y-107513381D01*
X163774333Y-107513381D01*
X163679095Y-107465762D01*
X163631476Y-107418143D01*
X163583857Y-107322905D01*
X163583857Y-107084810D01*
X163631476Y-106989571D01*
X163679095Y-106941952D01*
X163774333Y-106894333D01*
X163964810Y-106894333D01*
X164060048Y-106941952D01*
X164107667Y-106989571D01*
X164155286Y-107084810D01*
X162631476Y-107513381D02*
X163202905Y-107513381D01*
X162917191Y-107513381D02*
X162917191Y-106513381D01*
X163012429Y-106656238D01*
X163107667Y-106751476D01*
X163202905Y-106799095D01*
X162202905Y-107513381D02*
X162202905Y-106513381D01*
X161774333Y-107513381D02*
X161774333Y-106989571D01*
X161821952Y-106894333D01*
X161917190Y-106846714D01*
X162060048Y-106846714D01*
X162155286Y-106894333D01*
X162202905Y-106941952D01*
X163679095Y-101433381D02*
X163869572Y-101433381D01*
X163964810Y-101481000D01*
X164012429Y-101528619D01*
X164107667Y-101671476D01*
X164155286Y-101861952D01*
X164155286Y-102242905D01*
X164107667Y-102338143D01*
X164060048Y-102385762D01*
X163964810Y-102433381D01*
X163774333Y-102433381D01*
X163679095Y-102385762D01*
X163631476Y-102338143D01*
X163583857Y-102242905D01*
X163583857Y-102004810D01*
X163631476Y-101909571D01*
X163679095Y-101861952D01*
X163774333Y-101814333D01*
X163964810Y-101814333D01*
X164060048Y-101861952D01*
X164107667Y-101909571D01*
X164155286Y-102004810D01*
X162964810Y-101433381D02*
X162869571Y-101433381D01*
X162774333Y-101481000D01*
X162726714Y-101528619D01*
X162679095Y-101623857D01*
X162631476Y-101814333D01*
X162631476Y-102052429D01*
X162679095Y-102242905D01*
X162726714Y-102338143D01*
X162774333Y-102385762D01*
X162869571Y-102433381D01*
X162964810Y-102433381D01*
X163060048Y-102385762D01*
X163107667Y-102338143D01*
X163155286Y-102242905D01*
X163202905Y-102052429D01*
X163202905Y-101814333D01*
X163155286Y-101623857D01*
X163107667Y-101528619D01*
X163060048Y-101481000D01*
X162964810Y-101433381D01*
X162202905Y-102433381D02*
X162202905Y-101433381D01*
X161774333Y-102433381D02*
X161774333Y-101909571D01*
X161821952Y-101814333D01*
X161917190Y-101766714D01*
X162060048Y-101766714D01*
X162155286Y-101814333D01*
X162202905Y-101861952D01*
M02*
